<svg xmlns="http://www.w3.org/2000/svg" version="1.1" xmlns:xlink="http://www.w3.org/1999/xlink" xmlns:svgjs="http://svgjs.com/svgjs" width="512" height="512" x="0" y="0" viewBox="0 0 32 32" style="enable-background:new 0 0 512 512" xml:space="preserve" class=""><g><path d="M27.846 8 30 13c0 1.657-1.567 3-3.5 3-1.859 0-3.38-1.243-3.493-2.812-.001-.018-.012-.018-.014 0C22.88 14.757 21.359 16 19.5 16s-3.38-1.243-3.493-2.812c-.001-.018-.012-.018-.014 0C15.88 14.757 14.359 16 12.5 16s-3.38-1.243-3.493-2.812c-.001-.018-.012-.018-.014 0C8.88 14.757 7.359 16 5.5 16 3.567 16 2 14.657 2 13l2.154-5zM28 6H4V3a1 1 0 0 1 1-1h22a1 1 0 0 1 1 1zM28 17.806V30H4V17.806c.478.124.979.194 1.5.194s1.02-.084 1.5-.209V25.5a.5.5 0 0 0 .5.5h17a.5.5 0 0 0 .5-.5v-7.709c.48.125.979.209 1.5.209s1.022-.07 1.5-.194z" fill="#1a1668" data-original="#000000" opacity="1" class=""></path></g></svg>